<?xml version="1.0" encoding="UTF-8" standalone="no"?>
<!DOCTYPE svg PUBLIC "-//W3C//DTD SVG 1.1//EN" "http://www.w3.org/Graphics/SVG/1.1/DTD/svg11.dtd">
<svg width="100%" height="100%" viewBox="0 0 709 409" version="1.1" xmlns="http://www.w3.org/2000/svg" xmlns:xlink="http://www.w3.org/1999/xlink" xml:space="preserve" xmlns:serif="http://www.serif.com/" style="fill-rule:evenodd;clip-rule:evenodd;stroke-linejoin:round;stroke-miterlimit:2;">
    <path d="M700.223,5.991C624.451,5.991 563.489,5.426 495.313,5.784C457.768,6.995 426.62,9.316 405,17C360.686,30 359.493,43.882 334,29C300.01,9.158 233.32,6.134 207,6C98.826,5.451 8.1,5.996 8.1,5.996C8.1,5.996 8.038,23.154 8,28C14.351,28.128 24.017,26.051 24,34C23.993,37.218 23.161,346.487 22.998,373.572C22.972,377.998 20.791,380.853 8.146,381.264C8.023,389.751 7.944,391.57 8,402C161.49,401.358 262.865,408.938 313,387C346.731,372.105 351.062,365.867 374,380C383.843,384.843 386.336,386.445 405,391C414.502,393.319 422.489,394.122 430.211,395.525C445.444,398.293 459.643,399.501 482.395,400.032C519.046,400.887 577.89,399.982 699,401C699.03,395.637 699.012,386.789 698.96,381.188C693.898,380.996 685.233,380.126 685.002,372.539L685.002,37.461C685.462,26.774 700.223,28.277 700.223,28.277C700.223,28.277 700.032,16.956 700.223,5.991ZM32,21C173.228,21.721 252.206,16.601 302,31C318.623,35.807 339.289,47.973 342.175,50.052C315.607,67.869 322.825,78.617 299,68C249.769,46.062 201.668,52.788 85,53L85,353.414C116.843,352.822 173.514,353.897 228.281,352.715C287.946,348.169 310.695,336.305 339,308C399.794,247.206 361.817,132.367 365,126C371.145,113.711 386.993,99.703 389.224,97.731C436.849,169.911 415.177,263.645 399,296C392.833,308.333 347.232,375.535 252,385C195.393,387.344 105.333,385.667 32,386C37.32,383.09 38.57,379.219 38.633,373.545C38.97,343.091 38.652,323.424 39.174,195.676C39.032,82.593 39.22,47.194 38.709,33.756C38.473,27.557 36.525,23.164 32,21ZM316.614,309.652C283.446,251.649 285.61,202.435 298.938,152.42C310.485,109.084 333.181,74.126 346,64C361.079,51.582 361.469,51.298 375,44C387.681,38.447 407.97,25.927 481,21C594.598,21.026 659.409,20.862 677.076,20.942C669.987,25.11 670.1,28.687 670,35C668.893,104.81 669.019,108.709 669.243,373.758C669.25,382.398 671.188,385.102 674.353,387.06C509.473,386.237 462.318,388.243 406,376C365.33,362.916 371.703,354.297 374,352C387.204,338.796 392.371,329.235 410,337C416.56,339.889 426.457,345.93 455,349C500.434,353.888 478.958,352.059 623,353L621.997,54.007C515.055,52.303 461.065,49.734 426,63C381.273,77.648 364.426,99.922 354.302,113.751C325.226,158.802 324.354,228.709 345,270C350.208,280.416 316.956,309.257 316.614,309.652ZM100.996,66.978C129.521,66.654 231.889,66.119 253,70C257.261,70.387 305.86,83.22 304,92C293.322,111.646 287.961,125.622 282.162,148.711C269.581,198.791 269.708,247.409 296,303C301.464,314.554 304.972,317.014 293,323C288.227,325.387 263.565,337.718 228,338C159.932,338.54 173.884,338.011 102,338C101.013,258.548 101.539,212.952 100.996,66.978ZM401.737,89.302C439.191,58.657 584.854,67.761 609.031,67.95C608.687,154.3 609.344,240.651 609,327C608.996,327.885 608.925,327.816 608.985,338.014C595.135,338.012 491.21,337.657 456,335C427.744,332.868 410.062,322.862 403.398,319.394C413.868,302.777 419.588,286.919 423.838,268.773C437.241,211.551 441.463,153.298 401.737,89.302ZM354.086,153.571C360.127,189.444 365.876,203.205 353.25,252.7C344.032,205.336 343.48,198.812 354.086,153.571Z" style="fill:rgb(138,0,81);"/>
</svg>
